<?xml version="1.0" encoding="UTF-8"?>
<svg id="Layer_1" data-name="Layer 1" xmlns="http://www.w3.org/2000/svg" version="1.1" viewBox="0 0 1366 10961">
  <defs>
    <style>
      .cls-1 {
        font-size: 28.22px;
      }

      .cls-1, .cls-2, .cls-3, .cls-4 {
        fill: #000;
        font-family: BradleyHandITCTT-Bold, 'Bradley Hand';
        font-weight: 700;
      }

      .cls-2 {
        font-size: 32.32px;
      }

      .cls-5 {
        fill: #f533ff;
        stroke-width: 0px;
      }

      .cls-6 {
        stroke: #000;
      }

      .cls-6, .cls-7 {
        fill: none;
        stroke-miterlimit: 10;
      }

      .cls-3 {
        font-size: 52.45px;
      }

      .cls-4 {
        font-size: 64.5px;
      }

      .cls-7 {
        stroke: #070505;
        stroke-width: 4px;
      }
    </style>
  </defs>
  <rect class="cls-5" x="263" y="1905" width="840" height="626"/>
  <rect class="cls-5" x="263" y="2674" width="840" height="626"/>
  <rect class="cls-5" x="263" y="3444" width="840" height="626"/>
  <rect class="cls-5" x="263" y="4212" width="840" height="626"/>
  <rect class="cls-5" x="262" y="5303" width="840" height="626"/>
  <rect class="cls-5" x="263" y="6072" width="840" height="626"/>
  <rect class="cls-5" x="262" y="6841" width="840" height="626"/>
  <rect class="cls-5" x="263" y="7610" width="840" height="626"/>
  <rect class="cls-5" x="262" y="8377" width="840" height="626"/>
  <rect class="cls-5" x="263" y="1137" width="840" height="626"/>
  <text class="cls-4" transform="translate(474.52 5167.63)"><tspan x="0" y="0">“red letter day”</tspan></text>
  <line class="cls-7" x1="210.67" y1="1764.7" x2="1154.86" y2="1764.7"/>
  <line class="cls-7" x1="210.79" y1="1903.77" x2="1154.97" y2="1903.77"/>
  <line class="cls-7" x1="210.81" y1="2533.47" x2="1155" y2="2533.47"/>
  <line class="cls-7" x1="210.71" y1="2673.27" x2="1154.89" y2="2673.27"/>
  <line class="cls-7" x1="210.73" y1="3302.97" x2="1154.91" y2="3302.97"/>
  <line class="cls-7" x1="210.63" y1="3442.12" x2="1154.82" y2="3442.12"/>
  <line class="cls-7" x1="210.66" y1="4071.82" x2="1154.84" y2="4071.82"/>
  <line class="cls-7" x1="210.69" y1="4210.56" x2="1154.88" y2="4210.56"/>
  <line class="cls-7" x1="210.72" y1="4840.26" x2="1154.9" y2="4840.26"/>
  <line class="cls-7" x1="210.72" y1="5300.36" x2="1154.9" y2="5300.36"/>
  <line class="cls-7" x1="210.74" y1="5930.06" x2="1154.93" y2="5930.06"/>
  <line class="cls-7" x1="188.32" y1="6069.7" x2="1132.5" y2="6069.7"/>
  <line class="cls-7" x1="188.34" y1="6699.4" x2="1132.53" y2="6699.4"/>
  <line class="cls-7" x1="188.21" y1="6838.51" x2="1132.4" y2="6838.51"/>
  <line class="cls-7" x1="188.23" y1="7468.21" x2="1132.42" y2="7468.21"/>
  <line class="cls-7" x1="195.38" y1="7607.7" x2="1139.56" y2="7607.7"/>
  <line class="cls-7" x1="195.4" y1="8237.4" x2="1139.59" y2="8237.4"/>
  <line class="cls-7" x1="195.81" y1="8377.01" x2="1140" y2="8377.01"/>
  <line class="cls-7" x1="195.83" y1="9006.71" x2="1140.02" y2="9006.71"/>
  <text class="cls-3" transform="translate(493.99 126.47)"><tspan x="0" y="0">Portfolioooooooooooo</tspan></text>
  <g>
    <text class="cls-2" transform="translate(381.87 191.1)"><tspan x="0" y="0">Galerija</tspan></text>
    <rect class="cls-6" x="372.5" y="164" width="124.78" height="38.04"/>
  </g>
  <g>
    <text class="cls-1" transform="translate(518.22 189.67)"><tspan x="0" y="0">About me</tspan></text>
    <rect class="cls-6" x="511.07" y="164.24" width="135.43" height="38.04"/>
  </g>
  <text/>
  <text class="cls-4" transform="translate(373.37 957.76)"><tspan x="0" y="0">“polished not polished”</tspan></text>
  <g>
    <text class="cls-1" transform="translate(810.39 189.34)"><tspan x="0" y="0">Me parallel parking</tspan></text>
    <rect class="cls-6" x="803.24" y="163.92" width="256.26" height="38.04"/>
  </g>
  <g>
    <text class="cls-1" transform="translate(668.28 189.06)"><tspan x="0" y="0">Contacts</tspan></text>
    <rect class="cls-6" x="661.13" y="163.63" width="122.37" height="38.04"/>
  </g>
  <line class="cls-7" x1="210.65" y1="1135" x2="1154.83" y2="1135"/>
</svg>